HIERARCHY
ROOT pelvis
{
  OFFSET 0 100 0
  CHANNELS 6 Xposition Yposition Zposition Zrotation Xrotation Yrotation
  JOINT pelvis_right_femur
  {
    OFFSET -10.78128 -3.44521 -0.5502486
    CHANNELS 3 Zrotation Xrotation Yrotation
    JOINT right_femur_tibia
    {
      OFFSET -0.8047443 -44.0398 -0.1307829
      CHANNELS 3 Zrotation Xrotation Yrotation
      JOINT right_tibia_foot
      {
        OFFSET 3.006224 -47.83518 -5
        CHANNELS 3 Zrotation Xrotation Yrotation
        End Site
        {
          OFFSET 0 -5 15
        }
      }
    }
  }
  JOINT pelvis_left_femur
  {
    OFFSET 10.78128 -3.44521 -0.5502486
    CHANNELS 3 Zrotation Xrotation Yrotation
    JOINT left_femur_tibia
    {
      OFFSET 0.8047443 -44.0398 -0.1307829
      CHANNELS 3 Zrotation Xrotation Yrotation
      JOINT left_tibia_foot
      {
        OFFSET -4.370144 -48.10324 -4.275266
        CHANNELS 3 Zrotation Xrotation Yrotation
        End Site
        {
          OFFSET 0 -5 15
        }
      }
    }
  }
  JOINT pelvis_spine1
  {
    OFFSET 0 6.468898 -3.129235
    CHANNELS 3 Zrotation Xrotation Yrotation
    JOINT spine1
    {
      OFFSET 0 23.15396 4.99043
      CHANNELS 3 Zrotation Xrotation Yrotation
      JOINT spine2
      {
        OFFSET 0 20.79997 -5.064912
        CHANNELS 3 Zrotation Xrotation Yrotation
        JOINT neck
        {
          OFFSET 0 14.38658 9.616178
          CHANNELS 3 Zrotation Xrotation Yrotation
          End Site
          {
            OFFSET 0 20 0
          }
        }
      }
      JOINT right_manubrium
      {
        OFFSET -5.722621 16.35077 3.967754
        CHANNELS 3 Zrotation Xrotation Yrotation
        JOINT right_clavicle
        {
          OFFSET -13.16364 1.694482 -4.693211
          CHANNELS 3 Zrotation Xrotation Yrotation
          JOINT right_humerus
          {
            OFFSET -28.5034 -0.3100689 -2.792744
            CHANNELS 3 Zrotation Xrotation Yrotation
            JOINT right_radius
            {
              OFFSET -25.15693 0.02248979 -1.271978
              CHANNELS 3 Zrotation Xrotation Yrotation
              End Site
              {
                OFFSET -15 0 0
              }
            }
          }
        }
      }
      JOINT left_manubrium
      {
        OFFSET 5.722621 16.35077 3.967754
        CHANNELS 3 Zrotation Xrotation Yrotation
        JOINT left_clavicle
        {
          OFFSET 13.16364 1.694482 -4.693211
          CHANNELS 3 Zrotation Xrotation Yrotation
          JOINT left_humerus
          {
            OFFSET 29.39168 -1.063119 -2.237045
            CHANNELS 3 Zrotation Xrotation Yrotation
            JOINT left_radius
            {
              OFFSET 24.59957 -0.9528479 0.9047498
              CHANNELS 3 Zrotation Xrotation Yrotation
              End Site
              {
                OFFSET 15 -0 -0
              }
            }
          }
        }
      }
    }
  }
}
MOTION
Frames: 13
Frame Time: 0.0416666666667
848.5163 98.52939 2994.502 2.622992 -2.666936 34.29223 3.199357 -23.91981 2.705879 -0 10.98808 -0 -0.4961087 -0.4832929 -9.180742 -4.418752 18.46319 -6.820229 -0 29.99476 -0 -7.894571 -15.82401 11.37994 -3.311451 0.1066716 8.281673 -1.253856 13.08218 -5.652745 -3.904277 20.29201 7.867059 15.62234 -8.201703 -7.278048 10.31825 -17.65664 11.90594 76.71453 31.52096 -11.96636 -0 0 31.41715 -19.0882 3.038687 2.244589 8.382938 -26.37508 -13.27644 -96.33147 -0.319464 23.86915 -0 0 11.02565 12.9599 3.064096 -8.529271
852.1201 98.77821 3000.963 2.693555 -3.911515 34.15633 4.781333 -20.13335 3.999751 -0 14.82665 -0 -1.38943 -1.740815 -9.336487 -3.714291 16.88262 -6.846693 -0 38.77128 -0 -8.572552 -12.71627 12.40423 -2.923758 -0.02355406 8.297022 -1.140874 13.08403 -5.743196 -3.655714 20.31878 7.804578 14.89186 -8.899339 -6.446804 9.454608 -18.07794 12.00986 77.66732 30.87409 -12.45649 -0 0 30.50143 -19.20181 3.4422 2.313422 8.324801 -26.57632 -12.71309 -96.20852 0.4072614 24.04588 -0 0 9.536837 13.19285 3.815328 -8.669026
855.5917 99.61375 3007.251 3.098084 -5.400076 33.66063 5.824227 -15.41464 4.857256 -0 18.23083 -0 -2.158319 -3.822882 -9.148726 -3.152549 13.35067 -6.91155 -0 47.59648 -0 -8.7084 -9.882783 13.89031 -2.442614 -0.2030694 8.326737 -1.014852 13.14561 -5.829685 -3.357941 20.28349 7.691455 14.10126 -9.586871 -5.581299 8.605529 -18.59608 12.17308 78.52276 29.85092 -12.87711 -0 0 29.71083 -19.40325 4.049899 2.530564 8.290569 -26.80511 -12.0809 -96.21356 1.298341 24.40002 -0 0 8.165728 13.25738 4.683537 -8.590843
858.887 100.8075 3013.162 3.803093 -6.667745 32.88894 6.052526 -10.11352 5.276458 -0 19.57798 -0 -2.319692 -6.148079 -8.560953 -2.851288 7.958581 -7.025192 -0 54.87093 -0 -8.616306 -8.00477 15.45017 -1.951521 -0.423271 8.361286 -0.8874616 13.28382 -5.895251 -3.034931 20.21221 7.502482 13.29339 -10.18703 -4.770054 7.868433 -19.18684 12.37591 79.19143 28.59424 -13.14205 -0 0 29.14202 -19.66856 4.818563 2.918818 8.239745 -26.98595 -11.48812 -96.31361 2.243606 24.9143 -0 0 7.036566 13.14527 5.584687 -8.276564
862.0054 102.0331 3018.632 4.620763 -7.401618 32.00297 5.600077 -4.611777 5.448215 -0 18.53912 -0 -1.785178 -8.110489 -7.622714 -2.667349 1.240746 -7.029356 -0 58.87966 -0 -8.554015 -7.24149 16.76373 -1.502882 -0.6795979 8.389586 -0.7597776 13.49688 -5.933599 -2.699701 20.12727 7.231261 12.47472 -10.68727 -4.036278 7.274264 -19.83449 12.60174 79.66244 27.21978 -13.22626 -0 0 28.80594 -19.97783 5.71178 3.481137 8.144809 -27.07369 -10.98446 -96.47193 3.182094 25.55805 -0 0 6.165256 12.8856 6.471767 -7.750657
864.994 102.9591 3023.739 5.22908 -7.566924 31.12109 4.944237 0.6292924 5.454794 -0 16.05029 -0 -1.035927 -9.547698 -6.467718 -2.234714 -5.982796 -6.587873 -0 58.27028 -0 -8.390144 -7.194324 17.74684 -1.120763 -0.9637126 8.40515 -0.6272837 13.76606 -5.946224 -2.359605 20.04065 6.888168 11.63731 -11.11841 -3.364992 6.805916 -20.53555 12.8372 79.97399 25.82094 -13.13806 -0 0 28.66856 -20.31092 6.688707 4.198118 7.988478 -27.04751 -10.57259 -96.65625 4.083703 26.31005 -0 0 5.515214 12.52084 7.315017 -7.059164
867.9434 103.3464 3028.633 5.305033 -7.276322 30.26893 4.524161 5.227439 5.19905 -0 13.47978 -0 -0.6465776 -10.87881 -5.215074 -1.25853 -12.85407 -5.535792 -0 52.66562 -0 -7.858779 -7.305554 18.48601 -0.8114346 -1.262507 8.406678 -0.4848721 14.06476 -5.939243 -2.01976 19.95796 6.489944 10.77073 -11.52638 -2.7296 6.42001 -21.29492 13.0703 80.18834 24.47612 -12.90117 -0 0 28.67817 -20.6459 7.703034 5.033745 7.758828 -26.90221 -10.23356 -96.83552 4.931567 27.15782 -0 0 5.021503 12.09351 8.095606 -6.255682
870.9707 103.1293 3033.469 4.730414 -6.601993 29.43256 4.386444 9.047752 4.658773 -0 11.79374 -0 -0.6741796 -12.56305 -3.941132 0.132996 -18.66921 -4.185275 -0 43.33942 -0 -7.04859 -7.257887 19.04246 -0.573029 -1.557833 8.396087 -0.3312357 14.36345 -5.921532 -1.687529 19.88384 6.057005 9.875993 -11.94974 -2.112678 6.065749 -22.11051 13.2871 80.37447 23.26006 -12.55198 -0 0 28.77653 -20.95762 8.697803 5.932848 7.451237 -26.6473 -9.9469 -96.97724 5.706679 28.0796 -0 0 4.606573 11.64578 8.800746 -5.4024
874.1817 102.4164 3038.376 3.764098 -5.668994 28.62899 4.237589 12.17666 4.045522 -0 11.38025 -0 -0.7494899 -14.375 -2.776323 1.391876 -22.97549 -3.154612 -0 33.13325 -0 -6.304959 -7.060641 19.44717 -0.4013219 -1.826045 8.37784 -0.1734511 14.63143 -5.902212 -1.378945 19.82221 5.620215 8.990249 -12.3939 -1.527165 5.71357 -22.94783 13.47119 80.57731 22.24749 -12.14084 -0 0 28.91397 -21.21881 9.60021 6.814633 7.082656 -26.31412 -9.702813 -97.05767 6.376784 29.02222 -0 0 4.218718 11.21982 9.411007 -4.574973
877.6409 101.4091 3043.448 2.940998 -4.794609 27.90056 3.775657 14.78337 3.646046 -0 12.42026 -0 -0.6092387 -15.42684 -1.914745 1.949561 -25.59605 -2.903683 -0 25.01264 -0 -5.788417 -6.900917 19.78992 -0.2877703 -2.045093 8.357286 -0.0268858 14.84499 -5.88794 -1.116021 19.77534 5.221694 8.18729 -12.824 -1.013292 5.371202 -23.73132 13.6099 80.80016 21.48692 -11.73359 -0 0 29.05211 -21.41169 10.34123 7.587187 6.700437 -25.9598 -9.502836 -97.07492 6.908011 29.89506 -0 0 3.850492 10.85502 9.904462 -3.854288
881.38 100.3428 3048.749 2.682966 -4.273318 27.2852 2.886911 16.92709 3.610599 -0 15.22808 -0 -0.2406352 -14.8257 -1.47851 1.571099 -26.58708 -3.454837 -0 20.44393 -0 -5.395269 -6.931961 20.1135 -0.2166722 -2.203694 8.338428 0.09187769 14.99564 -5.88186 -0.9145838 19.74536 4.901175 7.538754 -13.19456 -0.606395 5.062726 -24.37646 13.70016 81.02771 20.97789 -11.40046 -0 0 29.15199 -21.53636 10.88313 8.178773 6.362917 -25.65069 -9.350403 -97.04456 7.287792 30.60064 -0 0 3.5107 10.58328 10.27587 -3.304908
885.4196 99.48361 3054.318 3.038104 -4.112833 26.8513 1.636928 18.39955 3.904712 -0 20.26515 -0 0.3203522 -12.1531 -1.441801 0.3760116 -26.1056 -4.486083 -0 19.11559 -0 -4.967121 -7.1732 20.28172 -0.1724876 -2.298657 8.324935 0.1705911 15.08415 -5.883687 -0.7823652 19.73344 4.687214 7.094805 -13.46913 -0.3266461 4.813558 -24.81925 13.74607 81.23863 20.69467 -11.19287 -0 0 29.18426 -21.60056 11.21261 8.54661 6.11767 -25.43913 -9.24688 -96.98891 7.520934 31.06821 -0 0 3.21712 10.42403 10.52747 -2.965269
889.7472 99.1083 3060.132 3.761121 -4.122658 26.71985 0.2618524 18.70628 4.358927 -0 27.86676 -0 1.030867 -7.605716 -1.745835 -1.31306 -24.24869 -5.597501 -0 19.79692 -0 -4.42707 -7.582403 20.06807 -0.1503033 -2.324886 8.322373 0.2000021 15.10754 -5.890128 -0.7297942 19.73686 4.605236 6.907479 -13.6062 -0.2010829 4.665597 -25.00582 13.75305 81.38605 20.62656 -11.13416 -0 0 29.15087 -21.60515 11.31089 8.656945 6.005341 -25.35957 -9.197244 -96.93562 7.604818 31.24865 -0 0 3.025769 10.38577 10.63793 -2.861801
